Coordinates
version=1
nRows=13
nColumns=36
inDegrees=yes

Units are S.I. units (second, meters, Newtons, ...)
If the header above contains a line with 'inDegrees', this indicates whether rotational values are in degrees (yes) or radians (no).

endheader
time	pelvis_tilt	pelvis_list	pelvis_rotation	pelvis_tx	pelvis_ty	pelvis_tz	hip_flexion_r	hip_adduction_r	hip_rotation_r	knee_angle_r	knee_angle_r_beta	ankle_angle_r	subtalar_angle_r	mtp_angle_r	hip_flexion_l	hip_adduction_l	hip_rotation_l	knee_angle_l	knee_angle_l_beta	ankle_angle_l	subtalar_angle_l	mtp_angle_l	lumbar_extension	lumbar_bending	lumbar_rotation	arm_flex_r	arm_add_r	arm_rot_r	elbow_flex_r	pro_sup_r	arm_flex_l	arm_add_l	arm_rot_l	elbow_flex_l	pro_sup_l
      4.30000000	    -25.83339283	     -8.93773696	     14.24129037	      0.92091637	      0.72499233	     -0.04505717	     83.15857715	    -25.84466923	     -8.75731199	     90.83715044	      1.58540736	     34.18521193	    -13.00073688	     -7.49999987	     86.23399071	    -14.43796651	      1.87142271	     88.49883221	      1.54459601	     39.44356021	     -7.38317875	     -7.49999987	    -33.45794736	      7.85052202	      5.98179083	     78.16416568	     -2.17780919	     69.47158522	    129.05989397	    102.60713410	     66.10847810	     11.07561094	     59.21201518	    113.52769386	    110.79026880
      4.31666670	    -25.63902872	     -8.68362720	     14.14488244	      0.92691119	      0.73581350	     -0.04697667	     82.51465924	    -25.56204968	     -8.57091535	     90.17073861	      1.57377628	     33.79179723	    -13.09950531	     -7.49999987	     85.24821074	    -14.39398493	      1.65726840	     87.88108239	      1.53381424	     40.04548313	     -6.54889302	     -7.49999987	    -32.85021418	      7.47833452	      5.05464685	     77.30790036	     -1.29970633	     68.88193728	    129.73793876	    103.73985074	     65.15853101	     10.62157343	     59.59096625	    114.61012635	    111.10707593
      4.33333330	    -25.40675839	     -8.47103616	     14.03213780	      0.93149269	      0.74283839	     -0.04923631	     81.54788777	    -25.27554803	     -8.59044127	     89.19927705	      1.55682107	     33.40366939	    -13.10624084	     -7.49999987	     84.01960540	    -14.28249764	      1.48784111	     87.01940405	      1.51877511	     40.40503894	     -5.90513765	     -7.49999987	    -32.18075141	      7.14997655	      4.51029523	     76.63922858	     -1.19798973	     68.63360173	    130.11053206	    103.83193046	     64.55157166	     10.67780174	     59.10632242	    114.83698830	    111.07601841
      4.35000000	    -25.17543163	     -8.29176928	     13.91324088	      0.92492910	      0.74575712	     -0.04643926	     80.58445905	    -24.95925817	     -8.64523483	     88.17649548	      1.53897017	     32.91936203	    -12.96459071	     -7.49999987	     82.84824659	    -14.23586344	      1.27755996	     86.10944069	      1.50289326	     40.61338395	     -5.34662148	     -7.49999987	    -31.14187068	      6.86819661	      4.21472926	     76.49431629	     -0.85056735	     68.17651841	    130.04352380	    103.86179702	     64.59977430	     10.50695082	     59.00798833	    114.72639773	    111.04240283
      4.36666670	    -24.89148339	     -8.03102457	     13.75549430	      0.93686421	      0.75738327	     -0.05252416	     79.25630651	    -24.67693790	     -8.81892639	     86.81331557	      1.51517819	     32.46388672	    -12.95055352	     -7.49999987	     81.32568903	    -14.11769853	      1.00001486	     84.91551575	      1.48205534	     40.88891187	     -4.72760966	     -7.49999987	    -30.33435565	      6.58839096	      3.47936990	     75.56766449	     -0.19088819	     68.00335649	    130.44563203	    103.74413142	     63.69554992	     10.49021202	     59.96710055	    115.20752450	    110.70945097
      4.38333330	    -24.59424155	     -7.70784453	     13.56132736	      0.93547603	      0.76665253	     -0.05198028	     77.82343477	    -24.34939331	     -8.95383813	     85.27116246	      1.48826254	     31.87443843	    -12.81959679	     -7.49999987	     79.55097208	    -13.99552713	      0.59878494	     83.45840018	      1.45662387	     41.09319323	     -3.94802854	     -7.49999987	    -29.32095718	      6.20465755	      2.94479718	     74.62390787	     -0.14867374	     67.99702292	    130.39785853	    103.82034940	     63.29427295	      9.96063801	     60.02744542	    115.08838555	    110.71566655
      4.40000000	    -24.18732318	     -7.23567294	     13.36887516	      0.93332514	      0.77551636	     -0.05073664	     76.29122756	    -24.00905896	     -8.93059016	     83.67717580	      1.46044223	     31.12977018	    -12.87076290	     -7.49999987	     77.59686897	    -13.92603963	     -0.01784621	     81.88086172	      1.42909063	     41.33187115	     -2.94063298	     -7.49999987	    -28.29685805	      5.61857273	      2.30178870	     74.26331051	      0.56416978	     66.83780592	    130.25409324	    103.93004659	     63.19793090	      9.87336145	     60.65652531	    115.77107264	    110.72016322
      4.41666670	    -23.79501324	     -6.88064681	     13.08109769	      0.93886222	      0.78820394	     -0.05279789	     74.52525946	    -23.63765371	     -9.19641520	     81.80385663	      1.42774664	     30.42318586	    -12.70212949	     -7.49999987	     75.55581686	    -13.85433986	     -0.47497248	     80.05550614	      1.39723217	     41.10966937	     -2.40644760	     -7.49999987	    -27.23423039	      5.24102954	      1.78599806	     73.04892110	      0.58074041	     66.61265782	    129.86509623	    103.78219000	     62.70204284	      9.18303988	     60.94288201	    115.60807563	    110.37831824
      4.43333330	    -23.41828613	     -6.26269801	     12.83318317	      0.93174401	      0.79629991	     -0.05482511	     73.01039946	    -23.43100177	     -9.08503652	     80.08953726	      1.39782612	     29.45395494	    -12.77057142	     -7.49999987	     73.54965908	    -13.72803501	     -1.30468394	     78.27758852	      1.36620165	     40.95395046	     -1.66057970	     -7.49999987	    -26.18864881	      4.64247477	      1.02124017	     73.16119614	      1.26089415	     65.11781655	    129.63811528	    103.86775887	     63.32736725	      9.15843879	     61.17338772	    116.04136155	    110.29205195
      4.45000000	    -23.21636561	     -5.95910098	     12.50459995	      0.93214452	      0.80809902	     -0.04900536	     71.40460278	    -23.03917944	     -9.45280910	     78.04122972	      1.36207641	     28.59045895	    -12.39875421	     -7.49999987	     71.76214057	    -13.73597094	     -1.87899167	     76.23683426	      1.33058377	     40.38384698	     -1.33908214	     -7.49999987	    -24.60366291	      4.17771960	      0.82545448	     72.76182346	      1.60552312	     65.19959427	    129.45907218	    103.67420566	     63.35419209	      8.72644520	     61.11493308	    116.02008185	    109.89180823
      4.46666670	    -22.73398964	     -5.35088260	     12.24216681	      0.93104765	      0.82277207	     -0.04771497	     69.41436153	    -22.76591192	     -9.61293777	     75.76816004	      1.32240386	     27.35117725	    -12.54766577	     -7.49999987	     69.38818714	    -13.63571822	     -2.80913768	     73.90561536	      1.28989632	     39.71058287	     -0.98438178	     -7.49999987	    -23.92509152	      3.45608113	      0.30159813	     73.34101321	      2.63767646	     64.26636847	    128.42272456	    103.27907787	     64.05277518	      7.98049498	     61.02171186	    116.40407861	    108.20369334
      4.48333330	    -22.38382666	     -5.01948048	     11.89810590	      0.92524509	      0.83316979	     -0.04385597	     67.69825196	    -22.32690004	     -9.99911535	     73.60380684	      1.28462877	     26.23137157	    -12.14887217	     -7.49999987	     67.46494793	    -13.75310311	     -3.53324957	     71.72938278	      1.25191390	     38.74352928	     -0.75256299	     -7.49999987	    -22.55683302	      2.92384100	      0.24293215	     73.64481273	      2.81746225	     63.38385651	    127.56043539	    103.18608900	     64.57956175	      7.69461374	     60.11978713	    115.95391032	    108.11969331
      4.50000000	    -21.94888120	     -4.62124426	     11.52208558	      0.93771140	      0.84652771	     -0.04879358	     65.53965079	    -21.96302843	    -10.49333524	     71.01149951	      1.23938447	     25.16117397	    -11.88507441	     -7.49999987	     65.09756968	    -13.64246222	     -4.17762385	     69.15905631	      1.20705324	     37.77801004	     -0.70505729	     -7.49999987	    -21.26645521	      2.34968033	     -0.06883612	     73.36298589	      3.37871777	     63.25506452	    127.47581447	    102.77473822	     64.09803688	      7.09489489	     60.26567718	    115.88174557	    107.56122133
